<?xml version="1.0" standalone="no"?>
<!DOCTYPE svg PUBLIC "-//W3C//DTD SVG 20010904//EN"
 "http://www.w3.org/TR/2001/REC-SVG-20010904/DTD/svg10.dtd">
<svg version="1.0" xmlns="http://www.w3.org/2000/svg"
 width="200.000000pt" height="200.000000pt" viewBox="0 0 200.000000 200.000000"
 preserveAspectRatio="xMidYMid meet">
<metadata>
Created by potrace 1.14, written by Peter Selinger 2001-2017
</metadata>
<g transform="translate(0.000000,200.000000) scale(0.100000,-0.100000)"
fill="#000000" stroke="none">
<path d="M999 1968 c-4 -15 -9 -57 -25 -223 -3 -27 -7 -59 -9 -70 -4 -28 -18
-193 -16 -202 0 -5 24 -8 51 -9 45 -1 52 3 52 26 0 11 -13 151 -22 235 -15
131 -20 186 -22 218 -2 23 -6 34 -9 25z"/>
<path d="M832 1403 c-13 -7 -37 -24 -54 -38 l-30 -25 253 0 252 0 -29 22 c-16
13 -37 29 -46 37 -23 20 -310 22 -346 4z"/>
<path d="M730 1282 c0 -4 7 -18 16 -30 15 -22 19 -22 254 -22 l239 0 21 30 21
30 -275 0 c-152 0 -276 -3 -276 -8z"/>
<path d="M828 1182 l-27 -3 24 -38 25 -37 150 1 149 0 26 34 c14 19 25 37 25
40 0 6 -325 8 -372 3z"/>
<path d="M895 1050 c-2 -3 -6 -34 -10 -70 -3 -36 -8 -78 -10 -95 -2 -16 -7
-57 -10 -90 -7 -64 -12 -113 -20 -185 -3 -25 -7 -65 -10 -90 -2 -25 -7 -65
-10 -90 -3 -25 -8 -65 -10 -90 -3 -25 -7 -67 -11 -95 -3 -27 -8 -68 -9 -90 -2
-22 -7 -66 -10 -97 l-7 -58 99 0 98 0 0 525 c0 345 -3 525 -10 526 -53 4 -67
4 -70 -1z"/>
<path d="M1029 1051 c-1 -4 -2 -241 -3 -528 l-1 -523 98 0 99 0 -7 58 c-3 31
-8 77 -10 101 -2 24 -7 60 -9 80 -3 20 -8 65 -11 101 -3 36 -8 76 -10 90 -2
14 -7 52 -10 85 -3 33 -8 78 -10 100 -9 72 -13 109 -20 180 -4 39 -8 80 -10
93 -2 13 -7 53 -11 90 -3 37 -8 69 -10 71 -6 6 -74 8 -75 2z"/>
</g>
</svg>
